<?xml version="1.0" standalone="no"?><!DOCTYPE svg PUBLIC "-//W3C//DTD SVG 1.1//EN" "http://www.w3.org/Graphics/SVG/1.1/DTD/svg11.dtd"><svg t="1602917937468" class="icon" viewBox="0 0 1024 1024" version="1.1" xmlns="http://www.w3.org/2000/svg" p-id="2497" width="20" height="20" xmlns:xlink="http://www.w3.org/1999/xlink"><defs><style type="text/css"></style></defs><path d="M975.457808 464.126696H559.846002V48.528541A47.98251 47.98251 0 0 0 512 0.682539 47.98251 47.98251 0 0 0 464.126696 48.528541V464.126696H48.528541a47.98251 47.98251 0 0 0-47.777748 47.846002A47.98251 47.98251 0 0 0 48.596795 559.818701H464.126696v415.639107a47.996161 47.996161 0 0 0 47.846002 47.859653 47.996161 47.996161 0 0 0 47.846003-47.859653V559.846002h415.639107a47.996161 47.996161 0 0 0 47.859653-47.846002A47.996161 47.996161 0 0 0 975.457808 464.126696z" p-id="2498" fill="#707070"></path></svg>