<?xml version="1.0" standalone="no"?><!DOCTYPE svg PUBLIC "-//W3C//DTD SVG 1.1//EN" "http://www.w3.org/Graphics/SVG/1.1/DTD/svg11.dtd"><svg t="1603261645084" class="icon" viewBox="0 0 1024 1024" version="1.1" xmlns="http://www.w3.org/2000/svg" p-id="21329" xmlns:xlink="http://www.w3.org/1999/xlink" width="20" height="20"><defs><style type="text/css"></style></defs><path d="M512 512m-512 0a512 512 0 1 0 1024 0 512 512 0 1 0-1024 0Z" fill="#D6D1FF" p-id="21330"></path><path d="M502.543059 914.853647C274.913882 914.853647 90.352941 730.292706 90.352941 502.603294 90.352941 274.944 274.913882 90.352941 502.603294 90.352941c227.629176 0 412.220235 184.621176 412.220235 412.250353a412.250353 412.250353 0 0 1-412.220235 412.250353h-0.060235z" fill="#5442E6" p-id="21331"></path><path d="M823.055059 375.175529a20.781176 20.781176 0 0 0-17.859765-12.197647 21.594353 21.594353 0 0 0-19.877647 9.396706 17.558588 17.558588 0 0 0 0.843294 20.329412 264.975059 264.975059 0 0 1 35.689412 128.602353h-131.312941l-77.131294-177.694118a21.684706 21.684706 0 0 0-22.256942-12.167529 20.48 20.48 0 0 0-18.823529 14.45647l-68.367059 253.44-97.28-181.157647a21.805176 21.805176 0 0 0-20.148706-10.661647 20.781176 20.781176 0 0 0-18.401882 12.950589l-36.502588 101.195294H193.295059a265.125647 265.125647 0 0 1 36.47247-130.108236 17.950118 17.950118 0 0 0 1.626353-14.757647 19.215059 19.215059 0 0 0-10.24-11.324235 22.347294 22.347294 0 0 0-28.702117 7.830588 297.562353 297.562353 0 0 0 0 304.399059c5.842824 8.463059 17.92 11.414588 27.617882 6.716235a18.221176 18.221176 0 0 0 9.246118-24.576 266.962824 266.962824 0 0 1-35.177412-101.195294h152.606118c9.065412 0.060235 17.227294-5.180235 20.178823-12.980706l25.118118-69.632 100.592941 186.488471a21.293176 21.293176 0 0 0 18.913882 10.601412h2.108236a20.389647 20.389647 0 0 0 18.04047-14.426353l66.650353-247.326118 58.24753 134.294588a21.082353 21.082353 0 0 0 19.727058 12.16753h143.36a266.330353 266.330353 0 0 1-35.599058 101.978353 17.769412 17.769412 0 0 0-1.686589 14.637176 19.034353 19.034353 0 0 0 10.059294 11.233883 22.136471 22.136471 0 0 0 28.55153-7.589647 297.592471 297.592471 0 0 0 2.529882-304.429177l-0.421647 1.505882h-0.060235z" fill="#FFFFFF" p-id="21332"></path></svg>