<?xml version="1.0" standalone="no"?><!DOCTYPE svg PUBLIC "-//W3C//DTD SVG 1.1//EN" "http://www.w3.org/Graphics/SVG/1.1/DTD/svg11.dtd"><svg t="1603261225924" class="icon" viewBox="0 0 1024 1024" version="1.1" xmlns="http://www.w3.org/2000/svg" p-id="21187" xmlns:xlink="http://www.w3.org/1999/xlink" width="20" height="20"><defs><style type="text/css"></style></defs><path d="M509.409882 86.919529c-232.869647 0-421.647059 189.470118-421.647058 423.213177 0 233.712941 210.823529 420.080941 421.647058 420.080941s421.647059-186.337882 421.647059-420.080941c0-233.712941-188.777412-423.213176-421.647059-423.213177z" fill="#FF3232" p-id="21188"></path><path d="M578.138353 600.756706c45.628235-130.710588 22.829176-226.273882 22.829176-226.273882s-34.213647-105.321412-114.085647-140.438589c55.115294 156.069647-171.128471 236.032-182.512941 351.081412-53.248 132.638118 91.256471 226.273882 91.256471 226.273882s-51.350588-165.797647 91.25647-234.044235c-13.312 89.720471 3.794824 136.523294 38.038589 218.443294 34.213647-33.129412 36.141176-31.201882 45.628235-62.403764 19.004235 37.044706 15.209412 85.805176 15.209412 85.805176s64.632471-56.560941 83.666823-140.438588c19.004235-83.877647-45.658353-140.438588-45.658353-140.438588s3.824941 48.790588-45.628235 62.433882z" fill="#FFFFFF" p-id="21189"></path><path d="M512 512m-512 0a512 512 0 1 0 1024 0 512 512 0 1 0-1024 0Z" fill="#FF3232" fill-opacity=".2" p-id="21190"></path></svg>