<?xml version="1.0" standalone="no"?><!DOCTYPE svg PUBLIC "-//W3C//DTD SVG 1.1//EN" "http://www.w3.org/Graphics/SVG/1.1/DTD/svg11.dtd"><svg t="1603102545949" class="icon" viewBox="0 0 1024 1024" version="1.1" xmlns="http://www.w3.org/2000/svg" p-id="6992" width="20" height="20" xmlns:xlink="http://www.w3.org/1999/xlink"><defs><style type="text/css"></style></defs><path d="M519.62 0.00002C415.696002 0.00002 331.110004 82.468018 327.537004 185.820016H85.016008a48.913999 48.913999 0 0 0-48.913999 48.866999 48.913999 48.913999 0 0 0 48.913999 48.865999h54.009999v547.79199c0 102.852998 69.821999 186.843996 155.909997 186.843996h439.199992c86.087998 0 155.909997-83.490998 155.909997-186.843996V284.100014h48.913999a48.913999 48.913999 0 0 0 48.913999-48.889999 48.913999 48.913999 0 0 0-48.913999-48.865999H711.203996A191.559996 191.559996 0 0 0 519.62 0.00002zM412.386002 177.080017c3.549-49.769999 46.627999-88.539998 99.851998-88.539999 53.223999 0 96.327998 38.745999 99.351998 88.539999H412.386002zM300.390004 929.126002c-30.981999 0-65.082999-39.149999-65.082999-95.040998v-546.33999h575.487989v546.83999c0 55.914999-34.077999 95.040998-65.059999 95.040998H300.389004v-0.5z" p-id="6993" fill="#707070"></path><path d="M368.116003 796.815004c24.362 0 44.269999-21.67 44.269999-48.818999V469.373011c0-27.147999-19.908-48.818999-44.269999-48.818999-24.338 0-44.269999 21.671-44.269999 48.818999v278.622994c0 27.147999 19.36 48.818999 44.293999 48.818999z m154.933997 0c24.361 0 44.293999-21.67 44.293999-48.818999V469.373011c0-27.147999-19.933-48.818999-44.293999-48.818999-24.338 0-44.269999 21.671-44.269999 48.818999v278.622994c0 27.147999 19.932 48.818999 44.292999 48.818999z m132.809997 0c24.338 0 44.269999-21.67 44.269999-48.818999V469.373011c0-27.147999-19.932-48.818999-44.269999-48.818999s-44.269999 21.671-44.269999 48.818999v278.622994c0 27.147999 19.36 48.818999 44.269999 48.818999z" p-id="6994" fill="#707070"></path></svg>