<?xml version="1.0" standalone="no"?><!DOCTYPE svg PUBLIC "-//W3C//DTD SVG 1.1//EN" "http://www.w3.org/Graphics/SVG/1.1/DTD/svg11.dtd"><svg t="1603264060426" class="icon" viewBox="0 0 1024 1024" version="1.1" xmlns="http://www.w3.org/2000/svg" p-id="21613" xmlns:xlink="http://www.w3.org/1999/xlink" width="20" height="20"><defs><style type="text/css"></style></defs><path d="M512 512m-512 0a512 512 0 1 0 1024 0 512 512 0 1 0-1024 0Z" fill="#B2FFEC" p-id="21614"></path><path d="M512 512m-421.647059 0a421.647059 421.647059 0 1 0 843.294118 0 421.647059 421.647059 0 1 0-843.294118 0Z" fill="#2CCFA7" p-id="21615"></path><path d="M373.067294 331.504941h6.806588c6.384941 0 11.565176 6.174118 11.65553 13.854118v32.286117c0 3.734588-1.204706 7.288471-3.433412 9.878589a10.601412 10.601412 0 0 1-8.222118 4.005647h-6.806588a10.601412 10.601412 0 0 1-8.222118-4.005647 15.420235 15.420235 0 0 1-3.433411-9.878589v-32.286117c0-7.740235 5.210353-14.034824 11.655529-14.064941v0.210823z m60.29553 0h6.806588c6.384941 0.090353 11.504941 6.234353 11.595294 13.854118v32.286117a15.36 15.36 0 0 1-3.433412 9.878589 10.691765 10.691765 0 0 1-8.31247 4.005647h-6.776471c-6.415059 0-11.595294-6.204235-11.595294-13.854118v-32.316235c0-7.740235 5.240471-14.034824 11.745882-14.064941l-0.030117 0.210823z m60.235294 0h6.716235c6.384941 0 11.595294 6.174118 11.685647 13.854118v32.286117a15.390118 15.390118 0 0 1-3.433412 9.908706 10.571294 10.571294 0 0 1-8.252235 3.97553h-6.746353a10.571294 10.571294 0 0 1-8.252235-3.97553 15.390118 15.390118 0 0 1-3.433412-9.908706v-32.286117c0-7.770353 5.240471-14.064941 11.685647-14.064941v0.210823z m241.031529 0a17.950118 17.950118 0 0 1 18.311529 17.980235v325.210353c0 9.938824-8.041412 17.980235-17.980235 18.010353H289.129412A18.070588 18.070588 0 0 1 271.058824 674.695529V349.485176a18.070588 18.070588 0 0 1 18.070588-17.980235h23.491764a18.040471 18.040471 0 0 1 18.070589 17.980235v160.828236c7.770353 3.072 15.058824 7.378824 21.504 12.709647 10.842353 9.185882 24.696471 14.125176 38.972235 13.854117a75.233882 75.233882 0 0 0 44.393412-15.872c13.251765-10.300235 29.424941-16.173176 46.20047-16.775529a74.691765 74.691765 0 0 1 48.067765 19.516235 37.255529 37.255529 0 0 0 56.32 0 75.173647 75.173647 0 0 1 48.670118-19.516235 115.681882 115.681882 0 0 1 44.754823 9.758118c4.096 1.686588 8.372706 2.951529 12.709647 3.764706v-104.809412a21.564235 21.564235 0 0 0-21.473882-21.413647h-92.672a18.070588 18.070588 0 0 1-18.070588-18.040471v-24.214588a18.070588 18.070588 0 0 1 18.070588-17.980235l156.491294 0.210823z" fill="#FFFFFF" p-id="21616"></path></svg>