<?xml version="1.0" standalone="no"?><!DOCTYPE svg PUBLIC "-//W3C//DTD SVG 1.1//EN" "http://www.w3.org/Graphics/SVG/1.1/DTD/svg11.dtd"><svg t="1602918418817" class="icon" viewBox="0 0 1025 1024" version="1.1" xmlns="http://www.w3.org/2000/svg" p-id="5995" width="20.01953125" height="20" xmlns:xlink="http://www.w3.org/1999/xlink"><defs><style type="text/css"></style></defs><path d="M928.019692 95.980308 96.019692 95.980308C42.968615 95.980308 0 138.948923 0 191.960615l0 640c0 53.011692 42.968615 96.019692 96.019692 96.019692l832 0c53.011692 0 96.019692-43.008 96.019692-96.019692L1024.039385 191.960615C1024 138.948923 980.992 95.980308 928.019692 95.980308zM944.009846 734.011077l-200.861538-267.815385c0 0-11.657846-21.661538-52.657231-21.661538-46.513231 0-60.494769 20.992-60.494769 20.992l-175.931077 271.556923c0 0-9.570462 18.195692-33.043692 18.195692-24.576 0-36.312615-18.195692-36.312615-18.195692L292.194462 631.335385c0 0-23.709538-31.389538-54.508308-31.389538-30.680615 0-56.162462 34.737231-56.162462 34.737231l-101.533538 126.503385L79.990154 209.132308c0-17.644308 14.336-32.019692 32.019692-32.019692l800.019692 0c17.683692 0 32.019692 14.375385 32.019692 32.019692L944.049231 734.011077zM463.911385 384c0 62.621538-50.727385 113.348923-113.309538 113.348923-62.582154 0-113.348923-50.766769-113.348923-113.348923 0-62.542769 50.766769-113.309538 113.348923-113.309538C413.184 270.729846 463.911385 321.457231 463.911385 384z" p-id="5996" fill="#707070"></path></svg>