<?xml version="1.0" standalone="no"?><!DOCTYPE svg PUBLIC "-//W3C//DTD SVG 1.1//EN" "http://www.w3.org/Graphics/SVG/1.1/DTD/svg11.dtd"><svg t="1602920353747" class="icon" viewBox="0 0 1024 1024" version="1.1" xmlns="http://www.w3.org/2000/svg" p-id="17176" width="20" height="20" xmlns:xlink="http://www.w3.org/1999/xlink"><defs><style type="text/css"></style></defs><path d="M661 65l108 108-216 219.8 78.2 78.2L851 255l108 108V65H661z m-29.8 488L553 631.2 769 851 661 959h298V661L851 769 631.2 553z m-238.4-82l78.2-78.2L255 173 363 65H65v298l108-108 219.8 216z m0 82L173 769 65 661v298h298L255 851l216-219.8-78.2-78.2z m0 0" p-id="17177" fill="#707070"></path></svg>