<?xml version="1.0" standalone="no"?><!DOCTYPE svg PUBLIC "-//W3C//DTD SVG 1.1//EN" "http://www.w3.org/Graphics/SVG/1.1/DTD/svg11.dtd"><svg t="1603264074223" class="icon" viewBox="0 0 1024 1024" version="1.1" xmlns="http://www.w3.org/2000/svg" p-id="21755" xmlns:xlink="http://www.w3.org/1999/xlink" width="20" height="20"><defs><style type="text/css"></style></defs><path d="M512 512m-512 0a512 512 0 1 0 1024 0 512 512 0 1 0-1024 0Z" fill="#C9D5FF" p-id="21756"></path><path d="M933.647059 512c0 6.505412-0.180706 12.890353-0.481883 19.275294-0.180706 3.885176-0.361412 7.830588-0.63247 11.685647l-0.301177 3.584c-1.114353 13.643294-2.831059 27.015529-5.180235 40.176941l-0.090353 0.39153c-1.024 5.842824-2.258824 11.655529-3.584 17.498353-1.295059 5.933176-2.800941 11.745882-4.306823 17.588706 0 0.210824-0.090353 0.391529-0.090353 0.602353a389.872941 389.872941 0 0 1-14.21553 42.977882c-0.662588 1.807059-1.415529 3.493647-2.078117 5.270588a400.203294 400.203294 0 0 1-10.902589 24.485647 408.515765 408.515765 0 0 1-27.587764 48.368941c-0.180706 0.301176-0.361412 0.662588-0.662589 0.933647a453.421176 453.421176 0 0 1-17.408 24.274824c-4.216471 5.571765-8.643765 10.932706-13.161411 16.203294a420.743529 420.743529 0 0 1-128.602353 102.038588 416.828235 416.828235 0 0 1-161.310118 45.176471 423.333647 423.333647 0 0 1-61.921882 0 419.900235 419.900235 0 0 1-257.626353-113.152c-4.156235-3.945412-8.282353-7.890824-12.227765-12.047059a411.346824 411.346824 0 0 1-42.255059-50.356706c-2.710588-3.855059-5.451294-7.710118-8.101647-11.655529-0.180706-0.180706-0.301176-0.481882-0.451764-0.662588-0.120471-0.180706-0.301176-0.361412-0.39153-0.572236a400.986353 400.986353 0 0 1-31.713882-57.223529c-1.686588-3.553882-3.192471-7.228235-4.818824-10.902588a272.805647 272.805647 0 0 1-3.162353-7.830589c-0.481882-1.024-0.843294-2.138353-1.325176-3.282823-0.481882-1.114353-0.843294-2.258824-1.325177-3.373177l-2.078117-5.481411a450.770824 450.770824 0 0 1-10.541177-33.219765c-0.090353-0.180706-0.090353-0.451765-0.180706-0.662588-3.312941-12.047059-6.023529-24.395294-8.192-36.894118a404.178824 404.178824 0 0 1-5.632-48.368941l-0.301176-5.722353A440.018824 440.018824 0 0 1 90.352941 511.789176a454.896941 454.896941 0 0 1 1.41553-34.153411c0-0.301176 0-0.662588 0.090353-0.963765 0.843294-9.968941 1.987765-19.877647 3.493647-29.635765a450.951529 450.951529 0 0 1 5.270588-27.678117c37.165176-165.647059 171.911529-294.580706 340.811294-323.102118a426.194824 426.194824 0 0 1 141.312-0.090353 419.719529 419.719529 0 0 1 169.381647 69.089882 422.279529 422.279529 0 0 1 174.561882 269.914353c0.752941 3.945412 1.415529 7.920941 1.957647 11.866353a413.033412 413.033412 0 0 1 4.879059 59.482353c0.120471 1.807059 0.120471 3.674353 0.120471 5.451294z" fill="#4D76FF" p-id="21757"></path><path d="M576.873412 95.834353v146.853647c0 5.421176-4.397176 9.848471-9.758118 9.848471h-110.230588a9.848471 9.848471 0 0 1-9.758118-9.848471V95.834353a388.367059 388.367059 0 0 1 129.746824 0z" fill="#FFFFFF" p-id="21758"></path><path d="M576.873412 94.900706v147.727059c0 5.421176-3.855059 9.908706-8.523294 9.908706h-23.913412V90.352941c10.932706 0.963765 21.805176 2.439529 32.436706 4.547765z" fill="#CECECE" p-id="21759"></path><path d="M706.620235 318.042353v53.398588c0 5.933176-4.698353 10.842353-10.390588 10.842353H295.333647a10.661647 10.661647 0 0 1-10.360471-10.842353V318.042353c0-53.910588 42.224941-97.912471 93.906824-97.912471h233.803294c51.591529 0 93.936941 44.032 93.936941 97.912471z" fill="#FFFFFF" p-id="21760"></path><path d="M493.658353 456.794353a18.582588 18.582588 0 0 1-18.311529-18.703059v-4.668235c0-10.300235 8.252235-18.733176 18.311529-18.733177 10.089412 0 18.341647 8.432941 18.341647 18.733177v4.668235a18.582588 18.582588 0 0 1-18.341647 18.703059z m0 359.845647a18.582588 18.582588 0 0 1-18.311529-18.733176v-9.999059c0-10.300235 8.252235-18.703059 18.311529-18.703059 10.089412 0 18.341647 8.432941 18.341647 18.703059v9.999059a18.582588 18.582588 0 0 1-18.341647 18.733176z m0-89.931294a18.582588 18.582588 0 0 1-18.311529-18.672941v-10.029177c0-10.300235 8.252235-18.733176 18.311529-18.733176 10.089412 0 18.341647 8.432941 18.341647 18.733176v9.999059a18.582588 18.582588 0 0 1-18.341647 18.703059z m0-89.99153a18.582588 18.582588 0 0 1-18.311529-18.703058v-10.029177c0-10.270118 8.252235-18.703059 18.311529-18.703059 10.089412 0 18.341647 8.432941 18.341647 18.703059v10.029177a18.522353 18.522353 0 0 1-18.341647 18.703058z m0-89.901176a18.582588 18.582588 0 0 1-18.311529-18.733176v-9.999059c0-10.300235 8.252235-18.703059 18.311529-18.703059 10.089412 0 18.341647 8.432941 18.341647 18.672941v10.029177a18.582588 18.582588 0 0 1-18.341647 18.733176z m0 354.394353a18.582588 18.582588 0 0 1-18.311529-18.703059v-4.698353c0-10.270118 8.252235-18.672941 18.311529-18.672941 10.089412 0 18.341647 8.402824 18.341647 18.672941v4.698353a18.582588 18.582588 0 0 1-18.341647 18.703059z m-162.846118-440.922353a18.642824 18.642824 0 0 1-18.070588-21.985882l0.843294-4.698353a18.311529 18.311529 0 0 1 21.263059-15.058824c9.999059 1.867294 16.564706 11.595294 14.757647 21.684706l-0.813176 4.698353a18.371765 18.371765 0 0 1-17.980236 15.36zM285.214118 724.449882a18.672941 18.672941 0 0 1-18.070589-21.985882l1.656471-9.818353a18.371765 18.371765 0 0 1 21.263059-15.179294 18.672941 18.672941 0 0 1 14.848 21.714823l-1.656471 9.818353a18.552471 18.552471 0 0 1-18.070588 15.450353z m15.299764-88.124235a18.672941 18.672941 0 0 1-18.070588-21.985882l1.656471-9.848471a18.371765 18.371765 0 0 1 21.263059-15.149176 18.672941 18.672941 0 0 1 14.848 21.684706l-1.626353 9.84847a18.522353 18.522353 0 0 1-18.070589 15.450353z m15.209412-88.064a18.672941 18.672941 0 0 1-18.070588-21.985882l1.65647-9.818353a18.371765 18.371765 0 0 1 21.263059-15.149177 18.672941 18.672941 0 0 1 14.848 21.684706l-1.626353 9.848471a18.612706 18.612706 0 0 1-18.070588 15.420235z m-44.815059 259.072a18.672941 18.672941 0 0 1-18.070588-22.076235l0.843294-4.577883a18.371765 18.371765 0 0 1 21.38353-15.058823 18.672941 18.672941 0 0 1 14.727529 21.805176l-0.813176 4.577883a18.432 18.432 0 0 1-18.070589 15.36zM430.260706 457.306353c-0.421647 0-0.903529 0-1.325177-0.090353-9.095529-0.843294-15.902118-9.938824-15.149176-20.359529l0.331294-4.758589c0.752941-10.420706 8.704-18.191059 17.799529-17.347764 9.125647 0.873412 15.902118 9.938824 15.149177 20.389647l-0.301177 4.72847c-0.692706 9.938824-7.981176 17.468235-16.50447 17.468236z m-25.419294 332.8c-0.481882 0-0.993882 0-1.505883-0.090353-9.095529-0.963765-15.811765-10.149647-15.058823-20.570353l0.752941-9.276235c0.813176-10.450824 8.854588-18.130824 17.980235-17.257412 9.095529 0.933647 15.811765 10.119529 15.058824 20.570353l-0.752941 9.276235c-0.752941 9.848471-7.951059 17.347765-16.474353 17.347765z m6.384941-83.215059c-0.512 0-0.993882 0-1.505882-0.090353-9.095529-0.963765-15.811765-10.149647-15.058824-20.570353l0.752941-9.306353c0.813176-10.420706 8.854588-18.070588 17.950118-17.227294 9.125647 0.933647 15.811765 10.119529 15.058823 20.540235l-0.722823 9.306353c-0.752941 9.848471-7.951059 17.347765-16.474353 17.347765z m6.354823-83.215059c-0.481882 0-0.993882 0-1.475764-0.090353-9.095529-0.963765-15.811765-10.149647-15.058824-20.570353l0.722824-9.306353c0.843294-10.420706 8.884706-18.070588 17.980235-17.257411 9.095529 0.963765 15.811765 10.149647 15.058824 20.570353l-0.722824 9.306353c-0.752941 9.938824-7.951059 17.347765-16.504471 17.347764z m6.384942-83.124706c-0.481882 0-0.993882 0-1.505883-0.12047-9.095529-0.933647-15.781647-10.119529-15.058823-20.540235l0.752941-9.306353c0.843294-10.420706 8.854588-18.100706 17.980235-17.257412 9.095529 0.963765 15.811765 10.149647 15.058824 20.570353l-0.752941 9.306353c-0.722824 9.848471-8.011294 17.347765-16.474353 17.347764z m-25.178353 328.222118c-0.391529 0-0.903529 0-1.325177-0.090353-9.095529-0.843294-15.902118-9.938824-15.149176-20.389647l0.331294-4.728471c0.752941-10.420706 8.704-18.191059 17.799529-17.347764 9.125647 0.843294 15.902118 9.938824 15.149177 20.389647l-0.301177 4.72847c-0.692706 9.938824-7.951059 17.468235-16.50447 17.468236zM693.308235 456.824471a18.492235 18.492235 0 0 1-18.010353-15.450353l-0.813176-4.668236a18.612706 18.612706 0 0 1 14.697412-21.684706 18.251294 18.251294 0 0 1 21.202823 15.058824l0.843294 4.668235a18.612706 18.612706 0 0 1-17.92 22.076236z m45.507765 264.192a18.432 18.432 0 0 1-18.010353-15.420236l-1.626353-9.84847a18.672941 18.672941 0 0 1 14.787765-21.684706 18.311529 18.311529 0 0 1 21.202823 15.149176l1.656471 9.818353a18.672941 18.672941 0 0 1-18.010353 21.985883z m-15.269647-88.124236a18.432 18.432 0 0 1-18.010353-15.450353l-1.626353-9.818353a18.672941 18.672941 0 0 1 14.787765-21.684705 18.311529 18.311529 0 0 1 21.202823 15.149176l1.656471 9.818353a18.672941 18.672941 0 0 1-18.010353 21.985882z m-15.179294-88.033882a18.432 18.432 0 0 1-17.980235-15.450353l-1.656471-9.818353a18.672941 18.672941 0 0 1 14.817882-21.684706 18.311529 18.311529 0 0 1 21.202824 15.149177l1.626353 9.818353a18.672941 18.672941 0 0 1-18.010353 21.985882z m44.694588 259.041882a18.251294 18.251294 0 0 1-17.889882-15.36l-0.843294-4.547764a18.672941 18.672941 0 0 1 14.727529-21.805177 18.311529 18.311529 0 0 1 21.293176 15.058824l0.813177 4.577882a18.672941 18.672941 0 0 1-14.697412 21.805176 21.473882 21.473882 0 0 1-3.403294 0.301177zM593.739294 457.306353c-8.523294 0-15.811765-7.469176-16.474353-17.438118l-0.331294-4.72847c-0.752941-10.420706 6.023529-19.516235 15.149177-20.389647 9.095529-0.843294 17.136941 6.927059 17.799529 17.347764l0.331294 4.758589c0.752941 10.420706-6.023529 19.516235-15.149176 20.359529a6.234353 6.234353 0 0 1-1.325177 0.090353z m25.419294 332.8c-8.523294 0-15.721412-7.378824-16.474353-17.347765l-0.752941-9.276235c-0.813176-10.450824 5.963294-19.636706 15.058824-20.570353 9.125647-0.963765 17.167059 6.806588 17.980235 17.257412l0.752941 9.276235c0.813176 10.420706-5.963294 19.606588-15.058823 20.570353-0.602353 0-1.084235 0.090353-1.505883 0.090353z m-6.384941-83.215059c-8.523294 0-15.721412-7.408941-16.474353-17.347765l-0.752941-9.306353c-0.813176-10.420706 5.963294-19.606588 15.058823-20.540235 9.125647-0.963765 17.167059 6.806588 17.980236 17.227294l0.752941 9.306353c0.843294 10.420706-5.963294 19.606588-15.058824 20.570353-0.512 0.090353-0.993882 0.090353-1.505882 0.090353z m-6.354823-83.215059c-8.553412 0-15.751529-7.408941-16.504471-17.347764l-0.722824-9.306353c-0.843294-10.420706 5.963294-19.606588 15.058824-20.570353 9.095529-0.933647 17.167059 6.836706 17.980235 17.257411l0.722824 9.306353c0.843294 10.420706-5.963294 19.606588-15.058824 20.570353-0.481882 0.090353-0.993882 0.090353-1.505882 0.090353z m-6.384942-83.124706c-8.523294 0-15.751529-7.408941-16.474353-17.347764l-0.752941-9.306353c-0.843294-10.420706 5.963294-19.606588 15.058824-20.570353 9.125647-0.933647 17.167059 6.836706 17.980235 17.257412l0.752941 9.306353c0.813176 10.420706-5.963294 19.606588-15.058823 20.540235-0.512 0-1.024 0.120471-1.505883 0.12047z m25.178353 328.222118c-8.553412 0-15.811765-7.469176-16.474353-17.438118l-0.331294-4.72847c-0.752941-10.420706 6.023529-19.546353 15.149177-20.389647 9.095529-0.843294 17.046588 6.927059 17.769411 17.347764l0.361412 4.728471c0.752941 10.450824-6.023529 19.546353-15.149176 20.389647a6.234353 6.234353 0 0 1-1.325177 0.090353z" fill="#BBECF9" p-id="21761"></path><path d="M706.620235 349.816471v24.726588c0 4.216471-4.698353 7.710118-10.390588 7.710117H295.333647c-5.692235 0-10.360471-3.463529-10.360471-7.710117v-24.696471h421.647059z" fill="#CECECE" p-id="21762"></path></svg>