<?xml version="1.0" standalone="no"?><!DOCTYPE svg PUBLIC "-//W3C//DTD SVG 1.1//EN" "http://www.w3.org/Graphics/SVG/1.1/DTD/svg11.dtd"><svg t="1602920124894" class="icon" viewBox="0 0 1024 1024" version="1.1" xmlns="http://www.w3.org/2000/svg" p-id="13023" width="20" height="20" xmlns:xlink="http://www.w3.org/1999/xlink"><defs><style type="text/css"></style></defs><path d="M193.10501197 643.67348066l315.5022686 164.12296628c-6.17874657 9.26812061-10.42663531 19.69475593-11.97132234 30.50756356-3.08937329 20.08092825 3.08937329 39.3895126 16.99155421 52.51935038l76.07582196 72.2141048c25.10115936 23.5564731 66.42153055 20.08092749 93.06737694-7.33726203L977.80588086 659.12034785C1003.2932118 632.86067378 1003.67938336 587.67858543 980.12291102 564.89445623l-76.07582272-72.21410556c-20.46709905-19.69475593-53.29169276-20.85327062-79.16519601-4.24788799l-160.26125062-318.59164262c-3.86171642-7.72343359-11.1989792-13.5160086-20.46709905-15.06069562l-556.47340072-126.27814145c-11.1989792-2.70320172-23.5564731 1.1585147-32.05225057 10.42663531-5.40640343 5.40640343-9.26811986 12.3574939-10.42663532 20.46709906-0.77234314 3.86171717-0.38617156 8.10960591 0.38617157 11.97132308l131.68454565 553.38402744c1.1585147 8.88194905 7.33726203 15.8330395 15.83303874 18.92241278z" p-id="13024" data-spm-anchor-id="a313x.7781069.0.i44" class="selected" fill="#707070"></path><path d="M135.56543047 165.2067605l221.27637696 217.41465979c-1.93085858 4.24788799-3.47554561 8.88194905-4.63405955 13.12983704-0.77234388 2.31703015-1.1585147 5.02023187-1.15851545 7.33726202-6.56491889 44.40974447 22.78412996 87.66097274 66.42152979 98.0876088 47.11294544 11.58515076 94.99823476-17.76389733 105.81104239-64.87684429 11.58515076-47.11294544-18.92241279-94.61206395-64.87684352-105.81104163-18.15006965-4.24788874-36.30013856-3.08937329-52.51934963 3.86171718l-219.34551763-215.48380197L611.71512124 215.79525079l162.57828 322.45335981-217.80083135 218.57317448-319.75015734-166.05382561-101.17698208-425.56119897z" fill="#FFFFFF" p-id="13025"></path></svg>