<?xml version="1.0" standalone="no"?><!DOCTYPE svg PUBLIC "-//W3C//DTD SVG 1.1//EN" "http://www.w3.org/Graphics/SVG/1.1/DTD/svg11.dtd"><svg t="1603177377163" class="icon" viewBox="0 0 1024 1024" version="1.1" xmlns="http://www.w3.org/2000/svg" p-id="6930" width="20" height="20" xmlns:xlink="http://www.w3.org/1999/xlink"><defs><style type="text/css"></style></defs><path d="M930 697V391c18.2-13.7 30-35.5 30-60 0-41.4-33.6-75-75-75-20.8 0-39.7 8.5-53.2 22.2L210.3 115.6c-9.8-30-38-51.6-71.3-51.6-41.4 0-75 33.6-75 75 0 27.3 14.6 51.2 36.5 64.4l93.2 620.5C174.5 837.4 162 859.7 162 885c0 41.4 33.6 75 75 75 32.5 0 60.1-20.6 70.5-49.5l522.8-102.2C844 822.9 863.4 832 885 832c41.4 0 75-33.6 75-75 0-24.5-11.8-46.3-30-60zM265.2 815.5l-91.6-610c9-4.7 17-11.2 23.4-18.9l614.9 160.8c5.4 24.6 23 44.6 46.1 53.6v286c-22.4 8.7-39.7 27.8-45.7 51.4L296.5 839.3c-8.1-10.5-18.9-18.7-31.3-23.8z" fill="#707070" p-id="6931"></path></svg>