<?xml version="1.0" standalone="no"?><!DOCTYPE svg PUBLIC "-//W3C//DTD SVG 1.1//EN" "http://www.w3.org/Graphics/SVG/1.1/DTD/svg11.dtd"><svg t="1602918685317" class="icon" viewBox="0 0 1024 1024" version="1.1" xmlns="http://www.w3.org/2000/svg" p-id="10064" width="20" height="20" xmlns:xlink="http://www.w3.org/1999/xlink"><defs><style type="text/css"></style></defs><path d="M853.333333 967.111111H170.666667c-62.805333 0-113.777778-50.972444-113.777778-113.834667V170.723556A113.948444 113.948444 0 0 1 170.666667 56.888889h682.666666c62.805333 0 113.777778 50.972444 113.777778 113.834667v682.666666A113.777778 113.777778 0 0 1 853.333333 967.111111zM714.069333 152.064H316.643556L316.359111 341.333333a28.444444 28.444444 0 0 0 28.444445 28.444445h340.48a28.444444 28.444444 0 0 0 28.444444-28.444445l0.398222-189.269333z m167.594667 57.685333a56.888889 56.888889 0 0 0-56.888889-56.888889h-28.444444v245.418667a56.888889 56.888889 0 0 1-56.888889 56.888889H284.501333a56.888889 56.888889 0 0 1-56.888889-56.888889V152.860444h-27.306666a56.888889 56.888889 0 0 0-56.888889 56.888889V832.284444c0 31.345778 25.429333 46.990222 56.888889 46.990223h624.412444c31.402667 0 56.888889-15.530667 56.888889-46.990223V209.806222z m-282.965333 131.128889c-15.758222 0-37.148444-12.288-37.148445-27.875555V199.111111c0-15.701333 21.504-28.842667 37.148445-28.842667 15.758222 0 37.148444 13.255111 37.148444 28.842667v113.834667c0.113778 15.644444-21.390222 27.932444-37.148444 27.932444z" fill="#707070" p-id="10065"></path></svg>