<?xml version="1.0" standalone="no"?><!DOCTYPE svg PUBLIC "-//W3C//DTD SVG 1.1//EN" "http://www.w3.org/Graphics/SVG/1.1/DTD/svg11.dtd"><svg t="1603094224329" class="icon" viewBox="0 0 1046 1024" version="1.1" xmlns="http://www.w3.org/2000/svg" p-id="5072" width="20.4296875" height="20" xmlns:xlink="http://www.w3.org/1999/xlink"><defs><style type="text/css"></style></defs><path d="M483.286955 943.033494h-307.755691c-55.671253 0-100.708671-43.661275-100.708671-97.330865V171.892812c0-53.66959 45.162522-97.330865 100.708671-97.330864v0.125104h661.299423c55.546149 0 100.583567 43.786379 100.583567 97.330864v392.325954h74.561948V172.017916C1012.101306 77.18913 933.410928 0 836.705583 0H175.531264C78.951023 0.125104 0.260645 77.18913 0.260645 172.017916v673.809817c0 94.703682 78.565274 171.892812 175.270619 171.892812h307.755691v-74.687051z m0 0" p-id="5073" fill="#707070"></path><path d="M1009.599227 677.062519L473.904159 358.297682c-19.641318-11.634666-32.40192-2.877391-28.148386 19.516214l113.969689 616.512213c4.253534 22.518709 18.265175 25.521204 31.401088 6.880716 0 0 72.810493-104.336685 132.485072-168.01459l120.975509 180.274776c7.381132 11.009147 22.393605 13.886537 33.277648 6.255197l57.047396-39.40774c11.009147-7.63134 13.886537-22.768917 6.380301-33.903168l-120.850405-179.899465c76.563611-31.776401 184.653414-58.548644 184.653414-58.548643 22.018293-5.379469 24.019956-19.391111 4.503742-30.900673z m0 0" p-id="5074" fill="#707070"></path></svg>