<?xml version="1.0" standalone="no"?><!DOCTYPE svg PUBLIC "-//W3C//DTD SVG 1.1//EN" "http://www.w3.org/Graphics/SVG/1.1/DTD/svg11.dtd"><svg t="1602919996124" class="icon" viewBox="0 0 1024 1024" version="1.1" xmlns="http://www.w3.org/2000/svg" p-id="10907" width="20" height="20" xmlns:xlink="http://www.w3.org/1999/xlink"><defs><style type="text/css"></style></defs><path d="M808.079 981.684H215.921c-95.719 0-173.619-77.902-173.619-173.619V215.936c0-95.719 77.9-173.619 173.619-173.619h592.158c95.719 0 173.619 77.9 173.619 173.619v592.129c0 95.716-77.9 173.619-173.619 173.619M215.921 137.018c-43.466 0-78.919 35.39-78.919 78.918v592.129c0 43.543 35.453 78.917 78.919 78.917h592.158c43.498 0 78.919-35.374 78.919-78.917V215.936c0-43.528-35.421-78.918-78.919-78.918H215.921z" p-id="10908" fill="#707070"></path></svg>