<?xml version="1.0" standalone="no"?><!DOCTYPE svg PUBLIC "-//W3C//DTD SVG 1.1//EN" "http://www.w3.org/Graphics/SVG/1.1/DTD/svg11.dtd"><svg t="1602920200813" class="icon" viewBox="0 0 1024 1024" version="1.1" xmlns="http://www.w3.org/2000/svg" p-id="14131" width="20" height="20" xmlns:xlink="http://www.w3.org/1999/xlink"><defs><style type="text/css"></style></defs><path d="M635 888.5c-41.5-4.3-63-13-78.6-25.9l-1.1-1.1c-13.5-14.6-20.5-46.9-20.5-97.6V221.6c0-7.6 5.9-14 14-14h87.3c78.2 0 83 10.8 107.7 32.9 26.9 21.1 38.8 31.9 52.8 102 1.6 6.5 7 11.3 14 11.3h5.4c8.1 0 14.5-6.5 14-14.6l-1.6-232.6H78.5c-7.6 0-13.5 5.9-14 13.5l-1.1 218.5c-0.5 8.1 5.9 14.6 14 14.6h5.4c7 0 12.4-4.8 14-11.3 14-69.6 25.9-80.4 52.8-101.4l0.5-0.5c24.3-21.6 29.6-32.4 107.3-32.4h87.3c7.6 0 14 5.9 14 14v525.6c0 60.4-6.5 96.6-20 108.4-1.1 0.5-1.6 1.6-2.2 2.2-11.9 16.1-31.8 26.4-73.2 30.7-7.6 0.5-13 6.5-13 14 0 7.6 5.9 14 14 14h369.6c7.6 0 14-5.9 14-14 0.1-7-5.3-13.5-12.9-14z m324.3-217.6l-0.7-99H638.4c-3.2 0-5.7 2.6-6 5.7l-0.5 93c-0.3 3.5 2.6 6.2 6 6.2h2.3c3 0 5.3-2.1 6-4.8 6-29.6 11-34.2 22.5-43.1l0.3-0.3c10.4-9.2 12.7-13.8 45.8-13.8h37.3c3.2 0 6 2.6 6 5.9v223.7c0 25.7-2.7 41-8.5 46.1-0.5 0.3-0.7 0.7-0.9 0.9-5 6.9-13.6 11.2-31.3 13-3.2 0.3-5.6 2.7-5.6 5.9s2.6 5.9 6 5.9h157.8c3.2 0 6-2.6 6-5.9 0-3-2.3-5.7-5.6-5.9-17.7-1.8-26.9-5.5-33.6-11l-0.5-0.5c-5.7-6.2-8.8-20-8.8-41.6V620.8c0-3.2 2.6-5.9 6-5.9h37.3c33.4 0 35.4 4.6 46 14 11.5 8.9 16.6 13.6 22.5 43.4 0.7 2.7 3 4.8 6 4.8h2.3c3.6 0 6.4-2.8 6.1-6.2z" fill="#707070" p-id="14132"></path></svg>