<?xml version="1.0" standalone="no"?><!DOCTYPE svg PUBLIC "-//W3C//DTD SVG 1.1//EN" "http://www.w3.org/Graphics/SVG/1.1/DTD/svg11.dtd"><svg t="1603264086584" class="icon" viewBox="0 0 1024 1024" version="1.1" xmlns="http://www.w3.org/2000/svg" p-id="21901" xmlns:xlink="http://www.w3.org/1999/xlink" width="20" height="20"><defs><style type="text/css"></style></defs><path d="M512 512m-512 0a512 512 0 1 0 1024 0 512 512 0 1 0-1024 0Z" fill="#FFD7C1" p-id="21902"></path><path d="M90.352941 512c0 232.869647 188.777412 421.647059 421.647059 421.647059s421.647059-188.777412 421.647059-421.647059S744.869647 90.352941 512 90.352941 90.352941 279.130353 90.352941 512z" fill="#FF8441" p-id="21903"></path><path d="M367.616 550.731294c4.969412 0 4.969412-3.373176 4.969412-8.914823v-102.79153c0-3.403294-1.626353-7.137882-4.969412-7.137882-29.756235 0-36.111059 24.877176-36.111059 60.325647-1.716706 33.701647 6.234353 58.518588 36.141177 58.518588z m324.909176-58.518588c0-35.448471-6.475294-60.325647-36.141176-60.325647-3.192471 0-4.939294 3.403294-4.939294 7.137882v102.851765c0 5.330824 0 8.884706 4.969412 8.884706 29.816471 0 37.797647-24.847059 36.080941-58.548706z m-298.917647-126.554353h241.54353c3.584 0 7.228235-3.373176 7.228235-10.149647C636.988235 309.428706 564.856471 240.941176 514.409412 240.941176c-52.254118 0-124.385882 70.264471-128 117.910589a7.589647 7.589647 0 0 0 7.228235 6.806588z m237.327059 351.774118h-26.172235v-145.468236h31.412706a4.336941 4.336941 0 0 0 3.764706-1.355294 4.818824 4.818824 0 0 0 1.204706-3.975529v-147.124706a4.818824 4.818824 0 0 0-1.204706-3.97553 4.336941 4.336941 0 0 0-3.764706-1.385411H604.762353v-33.641412a4.818824 4.818824 0 0 0-1.204706-3.975529 4.336941 4.336941 0 0 0-3.764706-1.385412h-175.104c-3.945412-0.451765-4.969412 1.807059-4.969412 5.360941v33.641412h-31.382588c-3.764706 0-6.625882 1.807059-6.625882 5.360941v149.052235a4.818824 4.818824 0 0 0 1.204706 3.97553 4.336941 4.336941 0 0 0 3.734588 1.385411h31.442823v143.540706h-6.445176a29.274353 29.274353 0 0 0-21.232941 9.456941c-5.571765 6.023529-8.643765 14.125176-8.523294 22.497883 0 17.679059 13.191529 33.641412 29.756235 33.641412h219.166118a29.274353 29.274353 0 0 0 21.232941-9.456942c5.571765-6.023529 8.643765-14.095059 8.523294-22.497882 0.090353-17.769412-13.191529-33.671529-29.665882-33.671529z m-116.043294-173.357177c-28.611765-0.752941-51.501176-25.328941-51.501176-55.41647 0-30.087529 22.889412-54.663529 51.501176-55.416471 38.309647-0.692706 51.139765 31.081412 51.651765 55.416471 0.301176 14.576941-4.999529 28.672-14.697412 39.092705a50.447059 50.447059 0 0 1-36.954353 16.323765z" fill="#FFFFFF" p-id="21904"></path></svg>