<?xml version="1.0" standalone="no"?><!DOCTYPE svg PUBLIC "-//W3C//DTD SVG 1.1//EN" "http://www.w3.org/Graphics/SVG/1.1/DTD/svg11.dtd"><svg t="1603264010675" class="icon" viewBox="0 0 1024 1024" version="1.1" xmlns="http://www.w3.org/2000/svg" p-id="21471" xmlns:xlink="http://www.w3.org/1999/xlink" width="20" height="20"><defs><style type="text/css"></style></defs><path d="M512 512m-512 0a512 512 0 1 0 1024 0 512 512 0 1 0-1024 0Z" fill="#FFD6D6" p-id="21472"></path><path d="M90.352941 512c0 232.869647 188.777412 421.647059 421.647059 421.647059s421.647059-188.777412 421.647059-421.647059S744.869647 90.352941 512 90.352941 90.352941 279.130353 90.352941 512z" fill="#FF4F5B" p-id="21473"></path><path d="M322.258824 572.385882h409.6V355.388235c0-13.312 11.444706-24.094118 25.6-24.094117s25.6 10.782118 25.6 24.094117v313.22353c0 6.384941-2.710588 12.528941-7.499295 17.046588a26.443294 26.443294 0 0 1-18.100705 7.047529H296.658824a26.443294 26.443294 0 0 1-18.100706-7.047529A23.401412 23.401412 0 0 1 271.058824 668.611765V355.388235c0-13.312 11.444706-24.094118 25.6-24.094117s25.6 10.782118 25.6 24.094117v216.997647z m182.934588-42.917647l-13.492706-11.294117a11.504941 11.504941 0 0 0-15.179294 0l-13.492706 11.294117a36.141176 36.141176 0 0 1-47.646118 0l-13.522823-11.294117a11.504941 11.504941 0 0 0-15.149177 0l-17.408 14.757647a12.589176 12.589176 0 0 1-18.883764-2.891294 16.444235 16.444235 0 0 1 2.56-21.172706l17.408-14.787765a36.291765 36.291765 0 0 1 47.676235 0l13.522823 11.294118a11.504941 11.504941 0 0 0 15.149177 0l13.522823-11.294118a36.231529 36.231529 0 0 1 47.646118 0l13.522824 11.294118a11.504941 11.504941 0 0 0 15.149176 0l13.522824-11.294118a36.231529 36.231529 0 0 1 47.646117 0l13.522824 11.294118a11.504941 11.504941 0 0 0 15.149176 0l13.522824-11.294118a36.291765 36.291765 0 0 1 47.676235 0l13.522824 11.294118c5.993412 5.662118 7.047529 14.456471 2.590117 21.202823a12.589176 12.589176 0 0 1-18.883765 2.891294l-13.492705-11.294117a11.504941 11.504941 0 0 0-15.179295 0l-13.522823 11.294117a36.141176 36.141176 0 0 1-47.646118 0l-13.492706-11.294117a11.504941 11.504941 0 0 0-15.179294 0l-13.492706 11.294117a36.502588 36.502588 0 0 1-23.642353 8.975059 36.924235 36.924235 0 0 1-23.853176-8.914823l-0.150588-0.060236z m0-61.741176l-13.492706-11.324235a11.504941 11.504941 0 0 0-15.179294 0l-13.492706 11.324235a36.171294 36.171294 0 0 1-47.435294-0.240941l-13.492706-11.294118a11.504941 11.504941 0 0 0-15.179294 0l-17.377883 14.757647a12.649412 12.649412 0 0 1-18.883764-2.891294 16.444235 16.444235 0 0 1 2.56-21.202824l17.408-14.757647a36.201412 36.201412 0 0 1 47.676235 0l13.522824 11.294118a11.504941 11.504941 0 0 0 15.149176 0l13.522824-11.294118a36.141176 36.141176 0 0 1 47.646117 0l13.522824 11.294118a11.504941 11.504941 0 0 0 15.149176 0l13.522824-11.294118a36.141176 36.141176 0 0 1 47.646117 0l13.492706 11.294118a11.504941 11.504941 0 0 0 15.179294 0l13.492706-11.294118a36.201412 36.201412 0 0 1 47.706353 0l13.492706 11.294118c6.023529 5.632 7.107765 14.456471 2.620235 21.202824a12.649412 12.649412 0 0 1-18.883764 2.891294l-13.522824-11.294118a11.504941 11.504941 0 0 0-15.149176 0l-13.522824 11.294118a36.141176 36.141176 0 0 1-47.646118 0l-13.492705-11.294118a11.504941 11.504941 0 0 0-15.179295 0l-13.522823 11.294118a36.502588 36.502588 0 0 1-23.642353 8.944941 37.044706 37.044706 0 0 1-23.823059-8.914824l-0.391529 0.210824z m0-61.741177l-13.492706-11.354353a11.504941 11.504941 0 0 0-15.179294 0l-13.492706 11.324236a36.141176 36.141176 0 0 1-47.646118 0l-13.281882-11.565177a11.504941 11.504941 0 0 0-15.179294 0l-17.377883 14.757647a12.589176 12.589176 0 0 1-18.883764-2.861176 16.444235 16.444235 0 0 1 2.56-21.202824l17.408-14.787764a36.201412 36.201412 0 0 1 47.676235 0l13.522824 11.324235a11.504941 11.504941 0 0 0 15.149176 0l13.522824-11.324235a36.141176 36.141176 0 0 1 47.646117 0l13.522824 11.324235a11.504941 11.504941 0 0 0 15.149176 0l13.522824-11.324235a36.141176 36.141176 0 0 1 47.646117 0l13.492706 11.324235a11.504941 11.504941 0 0 0 15.179294 0l13.492706-11.324235a36.201412 36.201412 0 0 1 47.706353 0l13.492706 11.324235c6.023529 5.632 7.077647 14.426353 2.620235 21.202823a12.589176 12.589176 0 0 1-18.883764 2.891295l-13.522824-11.324236a11.504941 11.504941 0 0 0-15.149176 0l-13.522824 11.324236a36.141176 36.141176 0 0 1-47.646118 0l-13.492705-11.324236a11.504941 11.504941 0 0 0-15.179295 0l-13.522823 11.324236a36.502588 36.502588 0 0 1-47.856941 0.060235v0.180706z" fill="#FFFFFF" p-id="21474"></path></svg>