<?xml version="1.0" standalone="no"?><!DOCTYPE svg PUBLIC "-//W3C//DTD SVG 1.1//EN" "http://www.w3.org/Graphics/SVG/1.1/DTD/svg11.dtd"><svg t="1603264097172" class="icon" viewBox="0 0 1024 1024" version="1.1" xmlns="http://www.w3.org/2000/svg" p-id="22043" xmlns:xlink="http://www.w3.org/1999/xlink" width="20" height="20"><defs><style type="text/css"></style></defs><path d="M512 512m-512 0a512 512 0 1 0 1024 0 512 512 0 1 0-1024 0Z" fill="#C9D5FF" p-id="22044"></path><path d="M404.948114 174.957714l9.216-2.691657 14.921143-3.569371v-11.117715l-24.137143 17.349486zM166.560914 584.265143l-10.532571 2.6624 23.698286 38.736457c-5.237029-13.487543-9.654857-27.326171-13.165715-41.398857zM878.474971 586.664229c0 6.290286-5.266286 12.580571-8.250514 19.309714-3.013486 6.699886-8.250514 13.399771-11.995428 19.690057l38.999771-36.893257-18.753829-2.106514z" fill="#000000" p-id="22045"></path><path d="M273.378743 772.973714A360.155429 360.155429 0 0 1 225.28 717.034057 348.072229 348.072229 0 0 1 193.097143 651.381029c-5.588114-13.9264-10.24-28.203886-13.955657-42.686172l-11.527315 2.750172-11.556571 2.750171c18.314971 73.5232 59.157943 140.141714 117.321143 191.370971l17.8176 15.1552 15.389257-15.1552-16.852114-14.218971c-5.763657-6.875429-11.0592-12.873143-16.325486-18.344229z m-51.463314-421.302857c47.659886-80.369371 126.624914-139.585829 219.7504-164.717714l10.093714-2.779429L468.114286 180.516571v-22.966857l-20.187429 5.5296a402.929371 402.929371 0 0 0-144.266971 64.687543 384.555886 384.555886 0 0 0-119.252115 137.684114l21.650286 10.093715c6.231771-9.157486 11.0592-16.501029 15.857372-23.844572z" fill="#000000" p-id="22046"></path><path d="M526.628571 118.549943c-226.216229 0-409.6 174.665143-409.6 390.085486C117.028571 724.114286 300.412343 898.779429 526.628571 898.779429s409.6-174.665143 409.6-390.114743c0-215.420343-183.383771-390.085486-409.6-390.085486z m-202.517942 130.048a343.946971 343.946971 0 0 1 121.066057-52.896914l14.5408-3.042743v19.075657l-13.633829 3.042743-8.660114 2.603885c-78.994286 21.416229-146.0224 71.533714-186.602057 139.556572-4.096 6.495086-8.192 12.580571-11.381029 19.514514l-18.6368-8.660114a327.387429 327.387429 0 0 1 103.277714-119.1936z m-12.288 507.552914l-15.506286-12.580571a319.663543 319.663543 0 0 1-98.742857-163.84h20.041143c3.130514 12.375771 7.080229 24.517486 11.819885 36.395885 7.255771 19.368229 16.559543 37.946514 27.794286 55.5008a308.077714 308.077714 0 0 0 39.1168 43.329829c4.534857 4.768914 9.098971 9.976686 14.101943 14.336l14.570057 12.112457-13.194971 14.7456z m189.293714 9.537829a272.735086 272.735086 0 0 1-141.5168-54.623086h141.546057v54.623086z m0-86.688915h-174.2848a253.074286 253.074286 0 0 1-41.398857-60.679314h215.712914v60.679314z m0-89.2928H273.6128a242.0736 242.0736 0 0 1-12.288-60.679314h239.850057v60.679314zM600.853943 193.974857c98.040686 20.772571 181.394286 81.890743 227.5328 166.882743l6.378057 12.990171-18.666057 8.221258-6.3488-12.112458-4.564114-7.3728c-39.584914-69.456457-106.554514-121.066057-186.133943-143.477028-7.753143-2.165029-15.038171-4.768914-22.762057-6.056229l4.564114-19.075657zM552.082286 529.466514h240.288914a242.4832 242.4832 0 0 1-12.288 60.679315h-227.5328l-0.468114-60.679315z m0 234.466743v-52.867657h141.546057a272.735086 272.735086 0 0 1-141.546057 54.623086v-1.755429z m0-86.688914v-60.679314h216.181028a253.074286 253.074286 0 0 1-41.428114 60.679314h-174.752914z m263.957943-9.069714a325.866057 325.866057 0 0 1-70.977829 81.042285l-13.194971-14.7456c9.976686-8.367543 19.397486-17.349486 28.203885-26.887314 13.809371-14.277486 26.155886-29.842286 36.864-46.372571a296.374857 296.374857 0 0 0 25.951086-55.471543c0-6.056229 4.973714-12.141714 6.816914-18.6368 1.813943-6.495086 3.189029-11.702857 4.564115-17.788343h20.011885c0 6.524343-3.189029 12.580571-4.564114 19.075657a315.099429 315.099429 0 0 1-33.645714 82.797714v-3.042743z" fill="#4D76FF" p-id="22047"></path></svg>